ISO-10303-21;
HEADER;
FILE_DESCRIPTION (( 'STEP AP203' ),
    '1' );
FILE_NAME ('2450AT18B0100001E.STEP',
    '2025-12-13T15:47:32',
    ( '' ),
    ( '' ),
    'SwSTEP 2.0',
    'SolidWorks 2023',
    '' );
FILE_SCHEMA (( 'CONFIG_CONTROL_DESIGN' ));
ENDSEC;

DATA;
#1 = APPROVAL_STATUS ( 'not_yet_approved' ) ;
#2 = VECTOR ( 'NONE', #95, 1000.000000000000000 ) ;
#3 = CARTESIAN_POINT ( 'NONE',  ( 0.5000000000000000000, 1.300000000000000044, 0.0000000000000000000 ) ) ;
#4 = CARTESIAN_POINT ( 'NONE',  ( 0.5000000000000000000, 0.0000000000000000000, -0.05000000000000007910 ) ) ;
#5 = DIRECTION ( 'NONE',  ( 0.0000000000000000000, 0.0000000000000000000, 1.000000000000000000 ) ) ;
#6 = VERTEX_POINT ( 'NONE', #285 ) ;
#7 = VECTOR ( 'NONE', #434, 1000.000000000000000 ) ;
#8 = CARTESIAN_POINT ( 'NONE',  ( 2.700000000000000622, 0.0000000000000000000, -1.600000000000000089 ) ) ;
#9 = CARTESIAN_POINT ( 'NONE',  ( 0.0000000000000000000, 1.300000000000000044, 0.0000000000000000000 ) ) ;
#10 = EDGE_CURVE ( 'NONE', #51, #56, #320, .T. ) ;
#11 = EDGE_CURVE ( 'NONE', #413, #210, #476, .T. ) ;
#12 = EDGE_LOOP ( 'NONE', ( #105, #135, #370, #132, #282, #93, #36, #403, #354, #202, #443, #339 ) ) ;
#13 = LINE ( 'NONE', #477, #44 ) ;
#14 = VERTEX_POINT ( 'NONE', #279 ) ;
#15 = CC_DESIGN_PERSON_AND_ORGANIZATION_ASSIGNMENT ( #497, #302, ( #388 ) ) ;
#16 = VECTOR ( 'NONE', #61, 1000.000000000000000 ) ;
#17 = DIRECTION ( 'NONE',  ( -0.0000000000000000000, -1.000000000000000000, -0.0000000000000000000 ) ) ;
#18 = FACE_OUTER_BOUND ( 'NONE', #88, .T. ) ;
#19 = ORIENTED_EDGE ( 'NONE', *, *, #180, .F. ) ;
#20 = EDGE_CURVE ( 'NONE', #72, #71, #406, .T. ) ;
#21 = CARTESIAN_POINT ( 'NONE',  ( 0.5000000000000000000, 1.300000000000000044, -1.550000000000000044 ) ) ;
#22 = ORIENTED_EDGE ( 'NONE', *, *, #104, .F. ) ;
#23 = ORIENTED_EDGE ( 'NONE', *, *, #149, .F. ) ;
#24 = VECTOR ( 'NONE', #412, 1000.000000000000000 ) ;
#25 =( LENGTH_UNIT ( ) NAMED_UNIT ( * ) SI_UNIT ( .MILLI., .METRE. ) );
#26 = AXIS2_PLACEMENT_3D ( 'NONE', #151, #275, #115 ) ;
#27 = DIRECTION ( 'NONE',  ( 0.0000000000000000000, 0.0000000000000000000, -1.000000000000000000 ) ) ;
#28 = ADVANCED_FACE ( 'NONE', ( #397 ), #327, .F. ) ;
#29 = VERTEX_POINT ( 'NONE', #247 ) ;
#30 = DATE_AND_TIME ( #398, #233 ) ;
#31 = CARTESIAN_POINT ( 'NONE',  ( 0.0000000000000000000, 0.0000000000000000000, -1.600000000000000089 ) ) ;
#32 = ORIENTED_EDGE ( 'NONE', *, *, #350, .T. ) ;
#33 = DIRECTION ( 'NONE',  ( -8.673617379884013384E-15, 0.0000000000000000000, 1.000000000000000000 ) ) ;
#34 = DIRECTION ( 'NONE',  ( 1.000000000000000000, 0.0000000000000000000, -0.0000000000000000000 ) ) ;
#35 = VERTEX_POINT ( 'NONE', #134 ) ;
#36 = ORIENTED_EDGE ( 'NONE', *, *, #182, .F. ) ;
#37 = CARTESIAN_POINT ( 'NONE',  ( 3.199999999999999734, 1.300000000000000044, 0.0000000000000000000 ) ) ;
#38 = ORIENTED_EDGE ( 'NONE', *, *, #332, .T. ) ;
#39 = COORDINATED_UNIVERSAL_TIME_OFFSET ( 8, 0, .BEHIND. ) ;
#40 = LINE ( 'NONE', #181, #314 ) ;
#41 = DIRECTION ( 'NONE',  ( -1.000000000000000000, -0.0000000000000000000, -0.0000000000000000000 ) ) ;
#42 = CARTESIAN_POINT ( 'NONE',  ( 0.5000000000000000000, 0.0000000000000000000, -1.600000000000000089 ) ) ;
#43 = VECTOR ( 'NONE', #246, 1000.000000000000000 ) ;
#44 = VECTOR ( 'NONE', #118, 1000.000000000000000 ) ;
#45 = CARTESIAN_POINT ( 'NONE',  ( 0.0000000000000000000, 1.300000000000000044, -1.600000000000000089 ) ) ;
#46 = CARTESIAN_POINT ( 'NONE',  ( 3.200000000000000178, 1.300000000000000044, -1.600000000000000089 ) ) ;
#47 = PLANE ( 'NONE',  #479 ) ;
#48 = VECTOR ( 'NONE', #117, 1000.000000000000000 ) ;
#49 = EDGE_CURVE ( 'NONE', #6, #407, #164, .T. ) ;
#50 = DIRECTION ( 'NONE',  ( 0.0000000000000000000, -1.000000000000000000, 0.0000000000000000000 ) ) ;
#51 = VERTEX_POINT ( 'NONE', #449 ) ;
#52 = LINE ( 'NONE', #190, #48 ) ;
#53 = PRODUCT_RELATED_PRODUCT_CATEGORY ( 'detail', '', ( #348 ) ) ;
#54 = PERSON_AND_ORGANIZATION ( #447, #373 ) ;
#55 = DIRECTION ( 'NONE',  ( 1.000000000000000000, 0.0000000000000000000, 0.0000000000000000000 ) ) ;
#56 = VERTEX_POINT ( 'NONE', #205 ) ;
#57 = CC_DESIGN_APPROVAL ( #371, ( #254 ) ) ;
#58 = DIRECTION ( 'NONE',  ( -1.000000000000000000, 0.0000000000000000000, -0.0000000000000000000 ) ) ;
#59 = ORIENTED_EDGE ( 'NONE', *, *, #239, .T. ) ;
#60 = ORIENTED_EDGE ( 'NONE', *, *, #317, .T. ) ;
#61 = DIRECTION ( 'NONE',  ( 2.710505431213761085E-16, -0.0000000000000000000, -1.000000000000000000 ) ) ;
#62 = CARTESIAN_POINT ( 'NONE',  ( 2.700000000000000622, 1.300000000000000044, -0.05000000000000002359 ) ) ;
#63 = FACE_OUTER_BOUND ( 'NONE', #102, .T. ) ;
#64 = ORIENTED_EDGE ( 'NONE', *, *, #182, .T. ) ;
#65 = CARTESIAN_POINT ( 'NONE',  ( 3.200000000000000178, 1.300000000000000044, -1.600000000000000089 ) ) ;
#66 = AXIS2_PLACEMENT_3D ( 'NONE', #394, #232, #154 ) ;
#67 = DIRECTION ( 'NONE',  ( -1.000000000000000000, 0.0000000000000000000, 0.0000000000000000000 ) ) ;
#68 = ORIENTED_EDGE ( 'NONE', *, *, #500, .F. ) ;
#69 = ORIENTED_EDGE ( 'NONE', *, *, #468, .F. ) ;
#70 = PERSON_AND_ORGANIZATION ( #447, #373 ) ;
#71 = VERTEX_POINT ( 'NONE', #138 ) ;
#72 = VERTEX_POINT ( 'NONE', #293 ) ;
#73 = CARTESIAN_POINT ( 'NONE',  ( 2.700000000000000622, 1.300000000000000044, -1.600000000000000089 ) ) ;
#74 = CARTESIAN_POINT ( 'NONE',  ( 2.699999999999999734, 0.0000000000000000000, 0.0000000000000000000 ) ) ;
#75 = VECTOR ( 'NONE', #251, 1000.000000000000000 ) ;
#76 = PLANE ( 'NONE',  #66 ) ;
#77 = LINE ( 'NONE', #9, #322 ) ;
#78 = EDGE_CURVE ( 'NONE', #221, #14, #415, .T. ) ;
#79 = PLANE ( 'NONE',  #128 ) ;
#80 = ORIENTED_EDGE ( 'NONE', *, *, #49, .F. ) ;
#81 = VECTOR ( 'NONE', #383, 1000.000000000000000 ) ;
#82 = CC_DESIGN_PERSON_AND_ORGANIZATION_ASSIGNMENT ( #334, #408, ( #254 ) ) ;
#83 = APPLICATION_CONTEXT ( 'configuration controlled 3d designs of mechanical parts and assemblies' ) ;
#84 = FACE_OUTER_BOUND ( 'NONE', #269, .T. ) ;
#85 = LOCAL_TIME ( 7, 47, 32.00000000000000000, #286 ) ;
#86 = PERSON_AND_ORGANIZATION_ROLE ( 'design_owner' ) ;
#87 = EDGE_CURVE ( 'NONE', #97, #72, #328, .T. ) ;
#88 = EDGE_LOOP ( 'NONE', ( #333, #281, #258, #374 ) ) ;
#89 = DIRECTION ( 'NONE',  ( 0.0000000000000000000, 0.0000000000000000000, -1.000000000000000000 ) ) ;
#90 = ORIENTED_EDGE ( 'NONE', *, *, #187, .T. ) ;
#91 = VECTOR ( 'NONE', #241, 1000.000000000000000 ) ;
#92 = APPROVAL_ROLE ( '' ) ;
#93 = ORIENTED_EDGE ( 'NONE', *, *, #439, .F. ) ;
#94 = ORIENTED_EDGE ( 'NONE', *, *, #357, .T. ) ;
#95 = DIRECTION ( 'NONE',  ( -1.000000000000000000, -0.0000000000000000000, -0.0000000000000000000 ) ) ;
#96 = LINE ( 'NONE', #73, #120 ) ;
#97 = VERTEX_POINT ( 'NONE', #3 ) ;
#98 = DIRECTION ( 'NONE',  ( 1.734723475976806463E-14, 0.0000000000000000000, -1.000000000000000000 ) ) ;
#99 = ORIENTED_EDGE ( 'NONE', *, *, #104, .T. ) ;
#100 = VECTOR ( 'NONE', #161, 1000.000000000000000 ) ;
#101 = LINE ( 'NONE', #256, #24 ) ;
#102 = EDGE_LOOP ( 'NONE', ( #343, #139, #494, #94 ) ) ;
#103 = DIRECTION ( 'NONE',  ( 0.0000000000000000000, 0.0000000000000000000, 1.000000000000000000 ) ) ;
#104 = EDGE_CURVE ( 'NONE', #72, #221, #101, .T. ) ;
#105 = ORIENTED_EDGE ( 'NONE', *, *, #239, .F. ) ;
#106 = DIRECTION ( 'NONE',  ( 0.0000000000000000000, 0.0000000000000000000, -1.000000000000000000 ) ) ;
#107 = ORIENTED_EDGE ( 'NONE', *, *, #49, .T. ) ;
#108 = COORDINATED_UNIVERSAL_TIME_OFFSET ( 8, 0, .BEHIND. ) ;
#109 = LINE ( 'NONE', #4, #338 ) ;
#110 = EDGE_CURVE ( 'NONE', #306, #141, #489, .T. ) ;
#111 = CARTESIAN_POINT ( 'NONE',  ( 2.699999999999999734, 1.300000000000000044, 0.0000000000000000000 ) ) ;
#112 = LINE ( 'NONE', #472, #424 ) ;
#113 = LINE ( 'NONE', #8, #7 ) ;
#114 = AXIS2_PLACEMENT_3D ( 'NONE', #271, #106, #422 ) ;
#115 = DIRECTION ( 'NONE',  ( -2.710505431213761085E-16, 0.0000000000000000000, 1.000000000000000000 ) ) ;
#116 = EDGE_CURVE ( 'NONE', #144, #6, #263, .T. ) ;
#117 = DIRECTION ( 'NONE',  ( -0.0000000000000000000, -0.0000000000000000000, 1.000000000000000000 ) ) ;
#118 = DIRECTION ( 'NONE',  ( 1.000000000000000000, 0.0000000000000000000, 0.0000000000000000000 ) ) ;
#119 = DIRECTION ( 'NONE',  ( -0.0000000000000000000, -1.000000000000000000, -0.0000000000000000000 ) ) ;
#120 = VECTOR ( 'NONE', #41, 1000.000000000000000 ) ;
#121 = DIRECTION ( 'NONE',  ( 1.000000000000000000, 0.0000000000000000000, 0.0000000000000000000 ) ) ;
#122 = CC_DESIGN_DATE_AND_TIME_ASSIGNMENT ( #486, #242, ( #254 ) ) ;
#123 = APPLICATION_PROTOCOL_DEFINITION ( 'international standard', 'config_control_design', 1994, #83 ) ;
#124 = EDGE_LOOP ( 'NONE', ( #244, #172, #19, #336 ) ) ;
#125 = COORDINATED_UNIVERSAL_TIME_OFFSET ( 8, 0, .BEHIND. ) ;
#126 = LINE ( 'NONE', #209, #75 ) ;
#127 = DIRECTION ( 'NONE',  ( 0.0000000000000000000, 0.0000000000000000000, -1.000000000000000000 ) ) ;
#128 = AXIS2_PLACEMENT_3D ( 'NONE', #273, #50, #437 ) ;
#129 = LINE ( 'NONE', #250, #300 ) ;
#130 = EDGE_CURVE ( 'NONE', #97, #198, #311, .T. ) ;
#131 = CARTESIAN_POINT ( 'NONE',  ( 0.5000000000000000000, 1.300000000000000044, -1.550000000000000044 ) ) ;
#132 = ORIENTED_EDGE ( 'NONE', *, *, #396, .F. ) ;
#133 = DIRECTION ( 'NONE',  ( -0.0000000000000000000, -1.000000000000000000, -0.0000000000000000000 ) ) ;
#134 = CARTESIAN_POINT ( 'NONE',  ( 2.700000000000000178, 1.300000000000000044, -1.550000000000000044 ) ) ;
#135 = ORIENTED_EDGE ( 'NONE', *, *, #110, .F. ) ;
#136 = VECTOR ( 'NONE', #33, 1000.000000000000000 ) ;
#137 = DATE_TIME_ROLE ( 'classification_date' ) ;
#138 = CARTESIAN_POINT ( 'NONE',  ( 0.5000000000000000000, 0.0000000000000000000, -0.05000000000000007910 ) ) ;
#139 = ORIENTED_EDGE ( 'NONE', *, *, #466, .F. ) ;
#140 = APPROVAL ( #446, 'UNSPECIFIED' ) ;
#141 = VERTEX_POINT ( 'NONE', #335 ) ;
#142 = PERSON_AND_ORGANIZATION_ROLE ( 'creator' ) ;
#143 = APPLICATION_CONTEXT ( 'configuration controlled 3d designs of mechanical parts and assemblies' ) ;
#144 = VERTEX_POINT ( 'NONE', #420 ) ;
#145 = DATE_AND_TIME ( #176, #248 ) ;
#146 = PLANE ( 'NONE',  #495 ) ;
#147 = EDGE_CURVE ( 'NONE', #29, #306, #471, .T. ) ;
#148 = CARTESIAN_POINT ( 'NONE',  ( 0.0000000000000000000, 0.0000000000000000000, 0.0000000000000000000 ) ) ;
#149 = EDGE_CURVE ( 'NONE', #14, #210, #260, .T. ) ;
#150 = VECTOR ( 'NONE', #475, 1000.000000000000000 ) ;
#151 = CARTESIAN_POINT ( 'NONE',  ( 3.200000000000000178, 1.300000000000000044, -1.600000000000000089 ) ) ;
#152 = CARTESIAN_POINT ( 'NONE',  ( 0.0000000000000000000, 1.300000000000000044, -1.600000000000000089 ) ) ;
#153 = EDGE_CURVE ( 'NONE', #381, #501, #96, .T. ) ;
#154 = DIRECTION ( 'NONE',  ( -1.000000000000000000, 0.0000000000000000000, -2.464095846557964090E-17 ) ) ;
#155 = VECTOR ( 'NONE', #493, 1000.000000000000000 ) ;
#156 = ADVANCED_FACE ( 'NONE', ( #63 ), #270, .F. ) ;
#157 = ORIENTED_EDGE ( 'NONE', *, *, #430, .T. ) ;
#158 = ORIENTED_EDGE ( 'NONE', *, *, #116, .F. ) ;
#159 = CC_DESIGN_SECURITY_CLASSIFICATION ( #200, ( #388 ) ) ;
#160 = CARTESIAN_POINT ( 'NONE',  ( 2.699999999999999734, 0.0000000000000000000, 0.0000000000000000000 ) ) ;
#161 = DIRECTION ( 'NONE',  ( -1.734723475976806463E-14, 0.0000000000000000000, 1.000000000000000000 ) ) ;
#162 = MECHANICAL_CONTEXT ( 'NONE', #83, 'mechanical' ) ;
#163 = ADVANCED_FACE ( 'NONE', ( #409 ), #231, .F. ) ;
#164 = LINE ( 'NONE', #372, #155 ) ;
#165 = VECTOR ( 'NONE', #473, 1000.000000000000000 ) ;
#166 = ORIENTED_EDGE ( 'NONE', *, *, #484, .T. ) ;
#167 = FACE_OUTER_BOUND ( 'NONE', #261, .T. ) ;
#168 = CARTESIAN_POINT ( 'NONE',  ( 0.5000000000000000000, 1.300000000000000044, -1.550000000000000044 ) ) ;
#169 = DIRECTION ( 'NONE',  ( -1.000000000000000000, -0.0000000000000000000, -0.0000000000000000000 ) ) ;
#170 = ORIENTED_EDGE ( 'NONE', *, *, #147, .T. ) ;
#171 = DIRECTION ( 'NONE',  ( -0.0000000000000000000, -1.000000000000000000, -0.0000000000000000000 ) ) ;
#172 = ORIENTED_EDGE ( 'NONE', *, *, #484, .F. ) ;
#173 = ADVANCED_FACE ( 'NONE', ( #284 ), #405, .F. ) ;
#174 = PLANE ( 'NONE',  #114 ) ;
#175 = VERTEX_POINT ( 'NONE', #211 ) ;
#176 = CALENDAR_DATE ( 2025, 13, 12 ) ;
#177 = DIRECTION ( 'NONE',  ( 1.000000000000000000, 0.0000000000000000000, 2.464095846557964090E-17 ) ) ;
#178 = EDGE_LOOP ( 'NONE', ( #90, #68, #442, #290 ) ) ;
#179 = APPROVAL_DATE_TIME ( #364, #140 ) ;
#180 = EDGE_CURVE ( 'NONE', #35, #144, #361, .T. ) ;
#181 = CARTESIAN_POINT ( 'NONE',  ( 0.0000000000000000000, 1.300000000000000044, -1.600000000000000089 ) ) ;
#182 = EDGE_CURVE ( 'NONE', #175, #392, #126, .T. ) ;
#183 = PERSON_AND_ORGANIZATION_ROLE ( 'classification_officer' ) ;
#184 = DIRECTION ( 'NONE',  ( -1.734723475976806463E-14, 0.0000000000000000000, 1.000000000000000000 ) ) ;
#185 = AXIS2_PLACEMENT_3D ( 'NONE', #376, #252, #34 ) ;
#186 = DIRECTION ( 'NONE',  ( -1.000000000000000000, 0.0000000000000000000, 0.0000000000000000000 ) ) ;
#187 = EDGE_CURVE ( 'NONE', #210, #175, #451, .T. ) ;
#188 = DIRECTION ( 'NONE',  ( -0.0000000000000000000, -1.000000000000000000, -0.0000000000000000000 ) ) ;
#189 = CARTESIAN_POINT ( 'NONE',  ( 3.200000000000000178, 0.0000000000000000000, -1.600000000000000089 ) ) ;
#190 = CARTESIAN_POINT ( 'NONE',  ( 0.0000000000000000000, 1.300000000000000044, 0.0000000000000000000 ) ) ;
#191 = ADVANCED_FACE ( 'NONE', ( #18 ), #204, .F. ) ;
#192 =( GEOMETRIC_REPRESENTATION_CONTEXT ( 3 ) GLOBAL_UNCERTAINTY_ASSIGNED_CONTEXT ( ( #222 ) ) GLOBAL_UNIT_ASSIGNED_CONTEXT ( ( #25, #323, #291 ) ) REPRESENTATION_CONTEXT ( 'NONE', 'WORKASPACE' ) );
#193 = EDGE_LOOP ( 'NONE', ( #170, #421, #158, #166 ) ) ;
#194 = ORIENTED_EDGE ( 'NONE', *, *, #468, .T. ) ;
#195 = DIRECTION ( 'NONE',  ( 0.0000000000000000000, -1.000000000000000000, 0.0000000000000000000 ) ) ;
#196 = CARTESIAN_POINT ( 'NONE',  ( 2.700000000000000622, 0.0000000000000000000, -0.05000000000000002359 ) ) ;
#197 = VECTOR ( 'NONE', #499, 1000.000000000000000 ) ;
#198 = VERTEX_POINT ( 'NONE', #312 ) ;
#199 = VERTEX_POINT ( 'NONE', #37 ) ;
#200 = SECURITY_CLASSIFICATION ( '', '', #344 ) ;
#201 = CALENDAR_DATE ( 2025, 13, 12 ) ;
#202 = ORIENTED_EDGE ( 'NONE', *, *, #276, .F. ) ;
#203 = APPROVAL_DATE_TIME ( #30, #371 ) ;
#204 = PLANE ( 'NONE',  #227 ) ;
#205 = CARTESIAN_POINT ( 'NONE',  ( 0.0000000000000000000, 0.0000000000000000000, 0.0000000000000000000 ) ) ;
#206 = ORIENTED_EDGE ( 'NONE', *, *, #130, .F. ) ;
#207 = AXIS2_PLACEMENT_3D ( 'NONE', #488, #67, #482 ) ;
#208 = CARTESIAN_POINT ( 'NONE',  ( 2.700000000000000622, 1.300000000000000044, -1.600000000000000089 ) ) ;
#209 = CARTESIAN_POINT ( 'NONE',  ( 3.200000000000000178, 0.0000000000000000000, -1.600000000000000089 ) ) ;
#210 = VERTEX_POINT ( 'NONE', #74 ) ;
#211 = CARTESIAN_POINT ( 'NONE',  ( 3.199999999999999734, 0.0000000000000000000, 0.0000000000000000000 ) ) ;
#212 = DIRECTION ( 'NONE',  ( -0.0000000000000000000, -1.000000000000000000, -0.0000000000000000000 ) ) ;
#213 = ADVANCED_FACE ( 'NONE', ( #463 ), #146, .F. ) ;
#214 = CC_DESIGN_DATE_AND_TIME_ASSIGNMENT ( #382, #137, ( #200 ) ) ;
#215 = ORIENTED_EDGE ( 'NONE', *, *, #130, .T. ) ;
#216 = LINE ( 'NONE', #224, #400 ) ;
#217 = EDGE_LOOP ( 'NONE', ( #64, #294, #69, #359 ) ) ;
#218 = AXIS2_PLACEMENT_3D ( 'NONE', #236, #186, #5 ) ;
#219 = APPROVAL_ROLE ( '' ) ;
#220 = CARTESIAN_POINT ( 'NONE',  ( 2.700000000000000622, 0.0000000000000000000, -1.600000000000000089 ) ) ;
#221 = VERTEX_POINT ( 'NONE', #384 ) ;
#222 = UNCERTAINTY_MEASURE_WITH_UNIT (LENGTH_MEASURE( 1.000000000000000082E-05 ), #25, 'distance_accuracy_value', 'NONE');
#223 = EDGE_CURVE ( 'NONE', #298, #318, #265, .T. ) ;
#224 = CARTESIAN_POINT ( 'NONE',  ( 0.5000000000000000000, 0.0000000000000000000, 0.0000000000000000000 ) ) ;
#225 = DIRECTION ( 'NONE',  ( 1.000000000000000000, -0.0000000000000000000, 8.673617379884013384E-15 ) ) ;
#226 = ADVANCED_BREP_SHAPE_REPRESENTATION ( '2450AT18B0100001E', ( #324, #393 ), #192 ) ;
#227 = AXIS2_PLACEMENT_3D ( 'NONE', #325, #225, #262 ) ;
#228 = CARTESIAN_POINT ( 'NONE',  ( 0.5000000000000000000, 1.300000000000000044, 0.0000000000000000000 ) ) ;
#229 = DIRECTION ( 'NONE',  ( -1.000000000000000000, -0.0000000000000000000, -0.0000000000000000000 ) ) ;
#230 = VECTOR ( 'NONE', #358, 1000.000000000000000 ) ;
#231 = PLANE ( 'NONE',  #257 ) ;
#232 = DIRECTION ( 'NONE',  ( 2.464095846557964090E-17, 0.0000000000000000000, -1.000000000000000000 ) ) ;
#233 = LOCAL_TIME ( 7, 47, 32.00000000000000000, #125 ) ;
#234 = CC_DESIGN_APPROVAL ( #140, ( #388 ) ) ;
#235 = CARTESIAN_POINT ( 'NONE',  ( 0.0000000000000000000, 1.300000000000000044, 0.0000000000000000000 ) ) ;
#236 = CARTESIAN_POINT ( 'NONE',  ( 0.5000000000000000000, 1.300000000000000044, 0.0000000000000000000 ) ) ;
#237 = VECTOR ( 'NONE', #369, 1000.000000000000000 ) ;
#238 = ORIENTED_EDGE ( 'NONE', *, *, #20, .T. ) ;
#239 = EDGE_CURVE ( 'NONE', #141, #56, #458, .T. ) ;
#240 = LINE ( 'NONE', #148, #165 ) ;
#241 = DIRECTION ( 'NONE',  ( -0.0000000000000000000, -1.000000000000000000, -0.0000000000000000000 ) ) ;
#242 = DATE_TIME_ROLE ( 'creation_date' ) ;
#243 = ORIENTED_EDGE ( 'NONE', *, *, #11, .T. ) ;
#244 = ORIENTED_EDGE ( 'NONE', *, *, #396, .T. ) ;
#245 = PLANE ( 'NONE',  #308 ) ;
#246 = DIRECTION ( 'NONE',  ( 1.000000000000000000, 0.0000000000000000000, 0.0000000000000000000 ) ) ;
#247 = CARTESIAN_POINT ( 'NONE',  ( 0.5000000000000000000, 0.0000000000000000000, -1.550000000000000044 ) ) ;
#248 = LOCAL_TIME ( 7, 47, 32.00000000000000000, #108 ) ;
#249 = CC_DESIGN_PERSON_AND_ORGANIZATION_ASSIGNMENT ( #460, #183, ( #200 ) ) ;
#250 = CARTESIAN_POINT ( 'NONE',  ( 3.199999999999999734, 1.300000000000000044, 0.0000000000000000000 ) ) ;
#251 = DIRECTION ( 'NONE',  ( 2.710505431213761085E-16, -0.0000000000000000000, -1.000000000000000000 ) ) ;
#252 = DIRECTION ( 'NONE',  ( 0.0000000000000000000, 0.0000000000000000000, 1.000000000000000000 ) ) ;
#253 = ORIENTED_EDGE ( 'NONE', *, *, #87, .F. ) ;
#254 = PRODUCT_DEFINITION ( 'UNKNOWN', '', #388, #467 ) ;
#255 = PERSON_AND_ORGANIZATION ( #447, #373 ) ;
#256 = CARTESIAN_POINT ( 'NONE',  ( 0.5000000000000000000, 1.300000000000000044, -0.05000000000000007910 ) ) ;
#257 = AXIS2_PLACEMENT_3D ( 'NONE', #62, #292, #98 ) ;
#258 = ORIENTED_EDGE ( 'NONE', *, *, #464, .F. ) ;
#259 = VECTOR ( 'NONE', #331, 1000.000000000000000 ) ;
#260 = LINE ( 'NONE', #111, #435 ) ;
#261 = EDGE_LOOP ( 'NONE', ( #157, #206, #462, #341 ) ) ;
#262 = DIRECTION ( 'NONE',  ( 8.673617379884013384E-15, 0.0000000000000000000, -1.000000000000000000 ) ) ;
#263 = LINE ( 'NONE', #131, #297 ) ;
#264 = EDGE_LOOP ( 'NONE', ( #301, #266, #253, #215 ) ) ;
#265 = LINE ( 'NONE', #461, #136 ) ;
#266 = ORIENTED_EDGE ( 'NONE', *, *, #20, .F. ) ;
#267 = EDGE_CURVE ( 'NONE', #198, #71, #216, .T. ) ;
#268 = CARTESIAN_POINT ( 'NONE',  ( 0.5000000000000000000, 1.300000000000000044, -1.550000000000000044 ) ) ;
#269 = EDGE_LOOP ( 'NONE', ( #363, #362, #22, #238 ) ) ;
#270 = PLANE ( 'NONE',  #185 ) ;
#271 = CARTESIAN_POINT ( 'NONE',  ( 2.699999999999999734, 1.300000000000000044, 0.0000000000000000000 ) ) ;
#272 = VECTOR ( 'NONE', #188, 1000.000000000000000 ) ;
#273 = CARTESIAN_POINT ( 'NONE',  ( 0.0000000000000000000, 0.0000000000000000000, 0.0000000000000000000 ) ) ;
#274 = LINE ( 'NONE', #352, #150 ) ;
#275 = DIRECTION ( 'NONE',  ( -1.000000000000000000, 0.0000000000000000000, -2.710505431213761085E-16 ) ) ;
#276 = EDGE_CURVE ( 'NONE', #71, #413, #109, .T. ) ;
#277 = FACE_OUTER_BOUND ( 'NONE', #12, .T. ) ;
#278 = AXIS2_PLACEMENT_3D ( 'NONE', #235, #195, #391 ) ;
#279 = CARTESIAN_POINT ( 'NONE',  ( 2.699999999999999734, 1.300000000000000044, 0.0000000000000000000 ) ) ;
#280 = PLANE ( 'NONE',  #26 ) ;
#281 = ORIENTED_EDGE ( 'NONE', *, *, #303, .F. ) ;
#282 = ORIENTED_EDGE ( 'NONE', *, *, #223, .F. ) ;
#283 = ADVANCED_FACE ( 'NONE', ( #309 ), #174, .F. ) ;
#284 = FACE_OUTER_BOUND ( 'NONE', #193, .T. ) ;
#285 = CARTESIAN_POINT ( 'NONE',  ( 0.5000000000000000000, 1.300000000000000044, -1.600000000000000089 ) ) ;
#286 = COORDINATED_UNIVERSAL_TIME_OFFSET ( 8, 0, .BEHIND. ) ;
#287 = DIRECTION ( 'NONE',  ( 1.000000000000000000, -0.0000000000000000000, 0.0000000000000000000 ) ) ;
#288 = CARTESIAN_POINT ( 'NONE',  ( 2.700000000000000622, 1.300000000000000044, -1.600000000000000089 ) ) ;
#289 = CARTESIAN_POINT ( 'NONE',  ( 0.5000000000000000000, 1.300000000000000044, 0.0000000000000000000 ) ) ;
#290 = ORIENTED_EDGE ( 'NONE', *, *, #149, .T. ) ;
#291 =( NAMED_UNIT ( * ) SI_UNIT ( $, .STERADIAN. ) SOLID_ANGLE_UNIT ( ) );
#292 = DIRECTION ( 'NONE',  ( 1.000000000000000000, -0.0000000000000000000, 1.734723475976806463E-14 ) ) ;
#293 = CARTESIAN_POINT ( 'NONE',  ( 0.5000000000000000000, 1.300000000000000044, -0.05000000000000007910 ) ) ;
#294 = ORIENTED_EDGE ( 'NONE', *, *, #357, .F. ) ;
#295 = EDGE_CURVE ( 'NONE', #6, #306, #112, .T. ) ;
#296 = CARTESIAN_POINT ( 'NONE',  ( 0.5000000000000000000, 0.0000000000000000000, -1.550000000000000044 ) ) ;
#297 = VECTOR ( 'NONE', #27, 1000.000000000000000 ) ;
#298 = VERTEX_POINT ( 'NONE', #220 ) ;
#299 = CARTESIAN_POINT ( 'NONE',  ( 2.700000000000000622, 1.300000000000000044, -0.05000000000000002359 ) ) ;
#300 = VECTOR ( 'NONE', #17, 1000.000000000000000 ) ;
#301 = ORIENTED_EDGE ( 'NONE', *, *, #267, .T. ) ;
#302 = PERSON_AND_ORGANIZATION_ROLE ( 'design_supplier' ) ;
#303 = EDGE_CURVE ( 'NONE', #35, #318, #427, .T. ) ;
#304 = DIRECTION ( 'NONE',  ( 1.000000000000000000, 0.0000000000000000000, -0.0000000000000000000 ) ) ;
#305 = ORIENTED_EDGE ( 'NONE', *, *, #87, .T. ) ;
#306 = VERTEX_POINT ( 'NONE', #42 ) ;
#307 = VECTOR ( 'NONE', #169, 1000.000000000000000 ) ;
#308 = AXIS2_PLACEMENT_3D ( 'NONE', #481, #89, #58 ) ;
#309 = FACE_OUTER_BOUND ( 'NONE', #178, .T. ) ;
#310 = APPROVAL_PERSON_ORGANIZATION ( #326, #371, #483 ) ;
#311 = LINE ( 'NONE', #289, #81 ) ;
#312 = CARTESIAN_POINT ( 'NONE',  ( 0.5000000000000000000, 0.0000000000000000000, 0.0000000000000000000 ) ) ;
#313 = DIRECTION ( 'NONE',  ( 0.0000000000000000000, 0.0000000000000000000, 1.000000000000000000 ) ) ;
#314 = VECTOR ( 'NONE', #345, 1000.000000000000000 ) ;
#315 = CARTESIAN_POINT ( 'NONE',  ( 2.700000000000000178, 0.0000000000000000000, -1.550000000000000044 ) ) ;
#316 = FACE_OUTER_BOUND ( 'NONE', #330, .T. ) ;
#317 = EDGE_CURVE ( 'NONE', #407, #141, #40, .T. ) ;
#318 = VERTEX_POINT ( 'NONE', #315 ) ;
#319 = FACE_OUTER_BOUND ( 'NONE', #264, .T. ) ;
#320 = LINE ( 'NONE', #445, #428 ) ;
#321 = LINE ( 'NONE', #389, #259 ) ;
#322 = VECTOR ( 'NONE', #121, 1000.000000000000000 ) ;
#323 =( NAMED_UNIT ( * ) PLANE_ANGLE_UNIT ( ) SI_UNIT ( $, .RADIAN. ) );
#324 = MANIFOLD_SOLID_BREP ( 'Boss-Extrude1', #465 ) ;
#325 = CARTESIAN_POINT ( 'NONE',  ( 2.700000000000000622, 1.300000000000000044, -1.600000000000000089 ) ) ;
#326 = PERSON_AND_ORGANIZATION ( #447, #373 ) ;
#327 = PLANE ( 'NONE',  #385 ) ;
#328 = LINE ( 'NONE', #228, #237 ) ;
#329 = VECTOR ( 'NONE', #229, 1000.000000000000000 ) ;
#330 = EDGE_LOOP ( 'NONE', ( #32, #498, #305, #99, #402, #456, #194, #377, #478, #365, #399, #107 ) ) ;
#331 = DIRECTION ( 'NONE',  ( -8.673617379884013384E-15, 0.0000000000000000000, 1.000000000000000000 ) ) ;
#332 = EDGE_CURVE ( 'NONE', #221, #413, #274, .T. ) ;
#333 = ORIENTED_EDGE ( 'NONE', *, *, #223, .T. ) ;
#334 = PERSON_AND_ORGANIZATION ( #447, #373 ) ;
#335 = CARTESIAN_POINT ( 'NONE',  ( 0.0000000000000000000, 0.0000000000000000000, -1.600000000000000089 ) ) ;
#336 = ORIENTED_EDGE ( 'NONE', *, *, #303, .T. ) ;
#337 = CARTESIAN_POINT ( 'NONE',  ( 2.700000000000000178, 1.300000000000000044, -1.550000000000000044 ) ) ;
#338 = VECTOR ( 'NONE', #177, 1000.000000000000000 ) ;
#339 = ORIENTED_EDGE ( 'NONE', *, *, #430, .F. ) ;
#340 = ADVANCED_FACE ( 'NONE', ( #474 ), #280, .F. ) ;
#341 = ORIENTED_EDGE ( 'NONE', *, *, #10, .T. ) ;
#342 = CC_DESIGN_PERSON_AND_ORGANIZATION_ASSIGNMENT ( #414, #142, ( #388 ) ) ;
#343 = ORIENTED_EDGE ( 'NONE', *, *, #439, .T. ) ;
#344 = SECURITY_CLASSIFICATION_LEVEL ( 'unclassified' ) ;
#345 = DIRECTION ( 'NONE',  ( -0.0000000000000000000, -1.000000000000000000, -0.0000000000000000000 ) ) ;
#346 = PLANE ( 'NONE',  #278 ) ;
#347 = FACE_OUTER_BOUND ( 'NONE', #379, .T. ) ;
#348 = PRODUCT ( '2450AT18B0100001E', '2450AT18B0100001E', '', ( #162 ) ) ;
#349 = VECTOR ( 'NONE', #380, 1000.000000000000000 ) ;
#350 = EDGE_CURVE ( 'NONE', #407, #51, #52, .T. ) ;
#351 = PLANE ( 'NONE',  #218 ) ;
#352 = CARTESIAN_POINT ( 'NONE',  ( 2.700000000000000622, 1.300000000000000044, -0.05000000000000002359 ) ) ;
#353 = APPROVAL_PERSON_ORGANIZATION ( #54, #140, #92 ) ;
#354 = ORIENTED_EDGE ( 'NONE', *, *, #11, .F. ) ;
#355 = CARTESIAN_POINT ( 'NONE',  ( 0.5000000000000000000, 0.0000000000000000000, -1.550000000000000044 ) ) ;
#356 = ORIENTED_EDGE ( 'NONE', *, *, #78, .F. ) ;
#357 = EDGE_CURVE ( 'NONE', #381, #392, #433, .T. ) ;
#358 = DIRECTION ( 'NONE',  ( -0.0000000000000000000, -1.000000000000000000, -0.0000000000000000000 ) ) ;
#359 = ORIENTED_EDGE ( 'NONE', *, *, #500, .T. ) ;
#360 = APPLICATION_PROTOCOL_DEFINITION ( 'international standard', 'config_control_design', 1994, #143 ) ;
#361 = LINE ( 'NONE', #168, #2 ) ;
#362 = ORIENTED_EDGE ( 'NONE', *, *, #332, .F. ) ;
#363 = ORIENTED_EDGE ( 'NONE', *, *, #276, .T. ) ;
#364 = DATE_AND_TIME ( #201, #425 ) ;
#365 = ORIENTED_EDGE ( 'NONE', *, *, #180, .T. ) ;
#366 = EDGE_CURVE ( 'NONE', #51, #97, #77, .T. ) ;
#367 = ADVANCED_FACE ( 'NONE', ( #316 ), #346, .F. ) ;
#368 = VECTOR ( 'NONE', #455, 1000.000000000000000 ) ;
#369 = DIRECTION ( 'NONE',  ( 0.0000000000000000000, 0.0000000000000000000, -1.000000000000000000 ) ) ;
#370 = ORIENTED_EDGE ( 'NONE', *, *, #147, .F. ) ;
#371 = APPROVAL ( #411, 'UNSPECIFIED' ) ;
#372 = CARTESIAN_POINT ( 'NONE',  ( 0.0000000000000000000, 1.300000000000000044, -1.600000000000000089 ) ) ;
#373 = ORGANIZATION ( 'UNSPECIFIED', 'UNSPECIFIED', '' ) ;
#374 = ORIENTED_EDGE ( 'NONE', *, *, #466, .T. ) ;
#375 = APPROVAL_DATE_TIME ( #145, #470 ) ;
#376 = CARTESIAN_POINT ( 'NONE',  ( 2.700000000000000622, 1.300000000000000044, -1.600000000000000089 ) ) ;
#377 = ORIENTED_EDGE ( 'NONE', *, *, #153, .T. ) ;
#378 = DIRECTION ( 'NONE',  ( 0.0000000000000000000, 0.0000000000000000000, -1.000000000000000000 ) ) ;
#379 = EDGE_LOOP ( 'NONE', ( #423, #459, #80, #410 ) ) ;
#380 = DIRECTION ( 'NONE',  ( -0.0000000000000000000, -1.000000000000000000, -0.0000000000000000000 ) ) ;
#381 = VERTEX_POINT ( 'NONE', #46 ) ;
#382 = DATE_AND_TIME ( #418, #441 ) ;
#383 = DIRECTION ( 'NONE',  ( -0.0000000000000000000, -1.000000000000000000, -0.0000000000000000000 ) ) ;
#384 = CARTESIAN_POINT ( 'NONE',  ( 2.700000000000000622, 1.300000000000000044, -0.05000000000000002359 ) ) ;
#385 = AXIS2_PLACEMENT_3D ( 'NONE', #485, #287, #127 ) ;
#386 = VECTOR ( 'NONE', #133, 1000.000000000000000 ) ;
#387 = CARTESIAN_POINT ( 'NONE',  ( 2.700000000000000622, 0.0000000000000000000, -0.05000000000000002359 ) ) ;
#388 = PRODUCT_DEFINITION_FORMATION_WITH_SPECIFIED_SOURCE ( 'ANY', '', #348, .NOT_KNOWN. ) ;
#389 = CARTESIAN_POINT ( 'NONE',  ( 2.700000000000000622, 1.300000000000000044, -1.600000000000000089 ) ) ;
#390 = ADVANCED_FACE ( 'NONE', ( #347 ), #47, .F. ) ;
#391 = DIRECTION ( 'NONE',  ( 0.0000000000000000000, -0.0000000000000000000, -1.000000000000000000 ) ) ;
#392 = VERTEX_POINT ( 'NONE', #189 ) ;
#393 = AXIS2_PLACEMENT_3D ( 'NONE', #450, #401, #55 ) ;
#394 = CARTESIAN_POINT ( 'NONE',  ( 0.5000000000000000000, 1.300000000000000044, -0.05000000000000007910 ) ) ;
#395 = APPROVAL_PERSON_ORGANIZATION ( #70, #470, #219 ) ;
#396 = EDGE_CURVE ( 'NONE', #318, #29, #480, .T. ) ;
#397 = FACE_OUTER_BOUND ( 'NONE', #452, .T. ) ;
#398 = CALENDAR_DATE ( 2025, 13, 12 ) ;
#399 = ORIENTED_EDGE ( 'NONE', *, *, #116, .T. ) ;
#400 = VECTOR ( 'NONE', #378, 1000.000000000000000 ) ;
#401 = DIRECTION ( 'NONE',  ( 0.0000000000000000000, 0.0000000000000000000, 1.000000000000000000 ) ) ;
#402 = ORIENTED_EDGE ( 'NONE', *, *, #78, .T. ) ;
#403 = ORIENTED_EDGE ( 'NONE', *, *, #187, .F. ) ;
#404 = COORDINATED_UNIVERSAL_TIME_OFFSET ( 8, 0, .BEHIND. ) ;
#405 = PLANE ( 'NONE',  #207 ) ;
#406 = LINE ( 'NONE', #438, #91 ) ;
#407 = VERTEX_POINT ( 'NONE', #45 ) ;
#408 = PERSON_AND_ORGANIZATION_ROLE ( 'creator' ) ;
#409 = FACE_OUTER_BOUND ( 'NONE', #496, .T. ) ;
#410 = ORIENTED_EDGE ( 'NONE', *, *, #295, .T. ) ;
#411 = APPROVAL_STATUS ( 'not_yet_approved' ) ;
#412 = DIRECTION ( 'NONE',  ( 1.000000000000000000, 0.0000000000000000000, 2.464095846557964090E-17 ) ) ;
#413 = VERTEX_POINT ( 'NONE', #387 ) ;
#414 = PERSON_AND_ORGANIZATION ( #447, #373 ) ;
#415 = LINE ( 'NONE', #299, #454 ) ;
#416 = ORIENTED_EDGE ( 'NONE', *, *, #350, .F. ) ;
#417 = CC_DESIGN_APPROVAL ( #470, ( #200 ) ) ;
#418 = CALENDAR_DATE ( 2025, 13, 12 ) ;
#419 = CARTESIAN_POINT ( 'NONE',  ( 0.0000000000000000000, 0.0000000000000000000, 0.0000000000000000000 ) ) ;
#420 = CARTESIAN_POINT ( 'NONE',  ( 0.5000000000000000000, 1.300000000000000044, -1.550000000000000044 ) ) ;
#421 = ORIENTED_EDGE ( 'NONE', *, *, #295, .F. ) ;
#422 = DIRECTION ( 'NONE',  ( -1.000000000000000000, 0.0000000000000000000, -0.0000000000000000000 ) ) ;
#423 = ORIENTED_EDGE ( 'NONE', *, *, #110, .T. ) ;
#424 = VECTOR ( 'NONE', #171, 1000.000000000000000 ) ;
#425 = LOCAL_TIME ( 7, 47, 32.00000000000000000, #404 ) ;
#426 = ADVANCED_FACE ( 'NONE', ( #319 ), #351, .F. ) ;
#427 = LINE ( 'NONE', #337, #349 ) ;
#428 = VECTOR ( 'NONE', #119, 1000.000000000000000 ) ;
#429 = DIRECTION ( 'NONE',  ( 1.000000000000000000, 0.0000000000000000000, -0.0000000000000000000 ) ) ;
#430 = EDGE_CURVE ( 'NONE', #56, #198, #240, .T. ) ;
#431 = EDGE_CURVE ( 'NONE', #14, #199, #13, .T. ) ;
#432 = PRODUCT_DEFINITION_SHAPE ( 'NONE', 'NONE',  #254 ) ;
#433 = LINE ( 'NONE', #440, #272 ) ;
#434 = DIRECTION ( 'NONE',  ( -1.000000000000000000, -0.0000000000000000000, -0.0000000000000000000 ) ) ;
#435 = VECTOR ( 'NONE', #212, 1000.000000000000000 ) ;
#436 = CC_DESIGN_PERSON_AND_ORGANIZATION_ASSIGNMENT ( #255, #86, ( #348 ) ) ;
#437 = DIRECTION ( 'NONE',  ( 0.0000000000000000000, -0.0000000000000000000, -1.000000000000000000 ) ) ;
#438 = CARTESIAN_POINT ( 'NONE',  ( 0.5000000000000000000, 1.300000000000000044, -0.05000000000000007910 ) ) ;
#439 = EDGE_CURVE ( 'NONE', #392, #298, #113, .T. ) ;
#440 = CARTESIAN_POINT ( 'NONE',  ( 3.200000000000000178, 1.300000000000000044, -1.600000000000000089 ) ) ;
#441 = LOCAL_TIME ( 7, 47, 32.00000000000000000, #39 ) ;
#442 = ORIENTED_EDGE ( 'NONE', *, *, #431, .F. ) ;
#443 = ORIENTED_EDGE ( 'NONE', *, *, #267, .F. ) ;
#444 = LINE ( 'NONE', #21, #230 ) ;
#445 = CARTESIAN_POINT ( 'NONE',  ( 0.0000000000000000000, 1.300000000000000044, 0.0000000000000000000 ) ) ;
#446 = APPROVAL_STATUS ( 'not_yet_approved' ) ;
#447 = PERSON ( 'UNSPECIFIED', 'UNSPECIFIED', 'UNSPECIFIED', ('UNSPECIFIED'), ('UNSPECIFIED'), ('UNSPECIFIED') ) ;
#448 = LINE ( 'NONE', #288, #386 ) ;
#449 = CARTESIAN_POINT ( 'NONE',  ( 0.0000000000000000000, 1.300000000000000044, 0.0000000000000000000 ) ) ;
#450 = CARTESIAN_POINT ( 'NONE',  ( 0.0000000000000000000, 0.0000000000000000000, 0.0000000000000000000 ) ) ;
#451 = LINE ( 'NONE', #160, #43 ) ;
#452 = EDGE_LOOP ( 'NONE', ( #59, #491, #416, #60 ) ) ;
#453 = ADVANCED_FACE ( 'NONE', ( #277 ), #79, .T. ) ;
#454 = VECTOR ( 'NONE', #184, 1000.000000000000000 ) ;
#455 = DIRECTION ( 'NONE',  ( 0.0000000000000000000, 0.0000000000000000000, -1.000000000000000000 ) ) ;
#456 = ORIENTED_EDGE ( 'NONE', *, *, #431, .T. ) ;
#457 = ADVANCED_FACE ( 'NONE', ( #84 ), #76, .F. ) ;
#458 = LINE ( 'NONE', #419, #197 ) ;
#459 = ORIENTED_EDGE ( 'NONE', *, *, #317, .F. ) ;
#460 = PERSON_AND_ORGANIZATION ( #447, #373 ) ;
#461 = CARTESIAN_POINT ( 'NONE',  ( 2.700000000000000622, 0.0000000000000000000, -1.600000000000000089 ) ) ;
#462 = ORIENTED_EDGE ( 'NONE', *, *, #366, .F. ) ;
#463 = FACE_OUTER_BOUND ( 'NONE', #124, .T. ) ;
#464 = EDGE_CURVE ( 'NONE', #501, #35, #321, .T. ) ;
#465 = CLOSED_SHELL ( 'NONE', ( #28, #487, #426, #457, #163, #283, #340, #156, #191, #213, #173, #390, #367, #453 ) ) ;
#466 = EDGE_CURVE ( 'NONE', #501, #298, #448, .T. ) ;
#467 = DESIGN_CONTEXT ( 'detailed design', #143, 'design' ) ;
#468 = EDGE_CURVE ( 'NONE', #199, #381, #490, .T. ) ;
#469 = SHAPE_DEFINITION_REPRESENTATION ( #432, #226 ) ;
#470 = APPROVAL ( #1, 'UNSPECIFIED' ) ;
#471 = LINE ( 'NONE', #296, #368 ) ;
#472 = CARTESIAN_POINT ( 'NONE',  ( 0.5000000000000000000, 1.300000000000000044, -1.600000000000000089 ) ) ;
#473 = DIRECTION ( 'NONE',  ( 1.000000000000000000, 0.0000000000000000000, 0.0000000000000000000 ) ) ;
#474 = FACE_OUTER_BOUND ( 'NONE', #217, .T. ) ;
#475 = DIRECTION ( 'NONE',  ( -0.0000000000000000000, -1.000000000000000000, -0.0000000000000000000 ) ) ;
#476 = LINE ( 'NONE', #196, #100 ) ;
#477 = CARTESIAN_POINT ( 'NONE',  ( 2.699999999999999734, 1.300000000000000044, 0.0000000000000000000 ) ) ;
#478 = ORIENTED_EDGE ( 'NONE', *, *, #464, .T. ) ;
#479 = AXIS2_PLACEMENT_3D ( 'NONE', #152, #313, #429 ) ;
#480 = LINE ( 'NONE', #355, #329 ) ;
#481 = CARTESIAN_POINT ( 'NONE',  ( 0.0000000000000000000, 1.300000000000000044, 0.0000000000000000000 ) ) ;
#482 = DIRECTION ( 'NONE',  ( 0.0000000000000000000, 0.0000000000000000000, 1.000000000000000000 ) ) ;
#483 = APPROVAL_ROLE ( '' ) ;
#484 = EDGE_CURVE ( 'NONE', #144, #29, #444, .T. ) ;
#485 = CARTESIAN_POINT ( 'NONE',  ( 0.0000000000000000000, 1.300000000000000044, 0.0000000000000000000 ) ) ;
#486 = DATE_AND_TIME ( #492, #85 ) ;
#487 = ADVANCED_FACE ( 'NONE', ( #167 ), #245, .F. ) ;
#488 = CARTESIAN_POINT ( 'NONE',  ( 0.5000000000000000000, 1.300000000000000044, -1.550000000000000044 ) ) ;
#489 = LINE ( 'NONE', #31, #307 ) ;
#490 = LINE ( 'NONE', #65, #16 ) ;
#491 = ORIENTED_EDGE ( 'NONE', *, *, #10, .F. ) ;
#492 = CALENDAR_DATE ( 2025, 13, 12 ) ;
#493 = DIRECTION ( 'NONE',  ( -1.000000000000000000, -0.0000000000000000000, -0.0000000000000000000 ) ) ;
#494 = ORIENTED_EDGE ( 'NONE', *, *, #153, .F. ) ;
#495 = AXIS2_PLACEMENT_3D ( 'NONE', #268, #103, #304 ) ;
#496 = EDGE_LOOP ( 'NONE', ( #243, #23, #356, #38 ) ) ;
#497 = PERSON_AND_ORGANIZATION ( #447, #373 ) ;
#498 = ORIENTED_EDGE ( 'NONE', *, *, #366, .T. ) ;
#499 = DIRECTION ( 'NONE',  ( -0.0000000000000000000, -0.0000000000000000000, 1.000000000000000000 ) ) ;
#500 = EDGE_CURVE ( 'NONE', #199, #175, #129, .T. ) ;
#501 = VERTEX_POINT ( 'NONE', #208 ) ;
ENDSEC;
END-ISO-10303-21;
