ISO-10303-21;
HEADER;
FILE_DESCRIPTION (( 'STEP AP203' ),
    '1' );
FILE_NAME ('B3DQ3BRG.STEP',
    '2025-06-17T15:56:04',
    ( '' ),
    ( '' ),
    'SwSTEP 2.0',
    'SolidWorks 2023',
    '' );
FILE_SCHEMA (( 'CONFIG_CONTROL_DESIGN' ));
ENDSEC;

DATA;
#1 = DIRECTION ( 'NONE',  ( 0.0000000000000000000, 1.000000000000000000, 0.0000000000000000000 ) ) ;
#2 = LINE ( 'NONE', #264, #13 ) ;
#3 = SHAPE_DEFINITION_REPRESENTATION ( #82, #92 ) ;
#4 = DIRECTION ( 'NONE',  ( 1.000000000000000000, 0.0000000000000000000, 0.0000000000000000000 ) ) ;
#5 = CARTESIAN_POINT ( 'NONE',  ( -1.000000000000001110, 0.0000000000000000000, -0.2400000000000001577 ) ) ;
#6 = DIRECTION ( 'NONE',  ( 1.000000000000000000, 0.0000000000000000000, -0.0000000000000000000 ) ) ;
#7 = DIRECTION ( 'NONE',  ( -0.0000000000000000000, -1.000000000000000000, -0.0000000000000000000 ) ) ;
#8 = EDGE_CURVE ( 'NONE', #239, #227, #246, .T. ) ;
#9 = ORIENTED_EDGE ( 'NONE', *, *, #221, .F. ) ;
#10 = PLANE ( 'NONE',  #21 ) ;
#11 = PLANE ( 'NONE',  #87 ) ;
#12 = CC_DESIGN_PERSON_AND_ORGANIZATION_ASSIGNMENT ( #132, #23, ( #35 ) ) ;
#13 = VECTOR ( 'NONE', #143, 1000.000000000000000 ) ;
#14 = EDGE_CURVE ( 'NONE', #175, #329, #331, .T. ) ;
#15 = ORIENTED_EDGE ( 'NONE', *, *, #317, .T. ) ;
#16 = DIRECTION ( 'NONE',  ( 0.0000000000000000000, 0.0000000000000000000, -1.000000000000000000 ) ) ;
#17 = ORIENTED_EDGE ( 'NONE', *, *, #156, .F. ) ;
#18 = ADVANCED_FACE ( 'NONE', ( #121 ), #217, .F. ) ;
#19 = EDGE_LOOP ( 'NONE', ( #15, #81, #340, #289 ) ) ;
#20 = COORDINATED_UNIVERSAL_TIME_OFFSET ( 8, 0, .BEHIND. ) ;
#21 = AXIS2_PLACEMENT_3D ( 'NONE', #196, #176, #148 ) ;
#22 = ORIENTED_EDGE ( 'NONE', *, *, #110, .F. ) ;
#23 = PERSON_AND_ORGANIZATION_ROLE ( 'design_supplier' ) ;
#24 = CARTESIAN_POINT ( 'NONE',  ( -1.084202172485504434E-15, 0.0000000000000000000, -1.239999999999999991 ) ) ;
#25 = ORIENTED_EDGE ( 'NONE', *, *, #234, .T. ) ;
#26 = CC_DESIGN_APPROVAL ( #275, ( #103 ) ) ;
#27 = APPROVAL_ROLE ( '' ) ;
#28 = CARTESIAN_POINT ( 'NONE',  ( -1.084202172485504434E-15, 1.000000000000000000, -0.2399999999999999911 ) ) ;
#29 = EDGE_CURVE ( 'NONE', #75, #68, #201, .T. ) ;
#30 = VECTOR ( 'NONE', #190, 1000.000000000000000 ) ;
#31 = ORIENTED_EDGE ( 'NONE', *, *, #144, .F. ) ;
#32 = PERSON_AND_ORGANIZATION_ROLE ( 'design_owner' ) ;
#33 = VECTOR ( 'NONE', #16, 1000.000000000000000 ) ;
#34 =( LENGTH_UNIT ( ) NAMED_UNIT ( * ) SI_UNIT ( .MILLI., .METRE. ) );
#35 = PRODUCT_DEFINITION_FORMATION_WITH_SPECIFIED_SOURCE ( 'ANY', '', #186, .NOT_KNOWN. ) ;
#36 = CC_DESIGN_PERSON_AND_ORGANIZATION_ASSIGNMENT ( #128, #284, ( #35 ) ) ;
#37 = CARTESIAN_POINT ( 'NONE',  ( 0.9999999999999988898, 1.000000000000000000, -0.2399999999999999911 ) ) ;
#38 = CARTESIAN_POINT ( 'NONE',  ( -1.600000000000001199, 0.0000000000000000000, 0.2399999999999999911 ) ) ;
#39 = ORIENTED_EDGE ( 'NONE', *, *, #221, .T. ) ;
#40 = CC_DESIGN_PERSON_AND_ORGANIZATION_ASSIGNMENT ( #113, #32, ( #186 ) ) ;
#41 = DIRECTION ( 'NONE',  ( -1.000000000000000000, -0.0000000000000000000, -0.0000000000000000000 ) ) ;
#42 = ORIENTED_EDGE ( 'NONE', *, *, #8, .F. ) ;
#43 = CARTESIAN_POINT ( 'NONE',  ( -1.084202172485504434E-15, 0.0000000000000000000, -0.2399999999999999911 ) ) ;
#44 = ORIENTED_EDGE ( 'NONE', *, *, #182, .T. ) ;
#45 = DIRECTION ( 'NONE',  ( -1.000000000000000000, -0.0000000000000000000, -0.0000000000000000000 ) ) ;
#46 = EDGE_CURVE ( 'NONE', #232, #138, #300, .T. ) ;
#47 = ADVANCED_FACE ( 'NONE', ( #107 ), #254, .T. ) ;
#48 = VECTOR ( 'NONE', #102, 1000.000000000000000 ) ;
#49 = DIRECTION ( 'NONE',  ( -1.000000000000000000, 0.0000000000000000000, 0.0000000000000000000 ) ) ;
#50 = AXIS2_PLACEMENT_3D ( 'NONE', #127, #49, #158 ) ;
#51 = ORIENTED_EDGE ( 'NONE', *, *, #323, .T. ) ;
#52 = CARTESIAN_POINT ( 'NONE',  ( -1.600000000000001199, 1.000000000000000000, 0.2399999999999999911 ) ) ;
#53 = ORIENTED_EDGE ( 'NONE', *, *, #46, .T. ) ;
#54 = CALENDAR_DATE ( 2025, 17, 6 ) ;
#55 = PLANE ( 'NONE',  #170 ) ;
#56 = DIRECTION ( 'NONE',  ( 0.0000000000000000000, 0.0000000000000000000, 1.000000000000000000 ) ) ;
#57 = ORIENTED_EDGE ( 'NONE', *, *, #14, .T. ) ;
#58 = CARTESIAN_POINT ( 'NONE',  ( 0.0000000000000000000, 0.0000000000000000000, 0.0000000000000000000 ) ) ;
#59 = DIRECTION ( 'NONE',  ( -1.000000000000000000, 0.0000000000000000000, -0.0000000000000000000 ) ) ;
#60 = DIRECTION ( 'NONE',  ( -0.0000000000000000000, -1.000000000000000000, -0.0000000000000000000 ) ) ;
#61 = DIRECTION ( 'NONE',  ( 0.0000000000000000000, 0.0000000000000000000, 1.000000000000000000 ) ) ;
#62 = VERTEX_POINT ( 'NONE', #130 ) ;
#63 = CARTESIAN_POINT ( 'NONE',  ( -1.084202172485504434E-15, 0.0000000000000000000, -0.2399999999999999911 ) ) ;
#64 = VERTEX_POINT ( 'NONE', #80 ) ;
#65 = CIRCLE ( 'NONE', #318, 1.000000000000000000 ) ;
#66 = VECTOR ( 'NONE', #114, 1000.000000000000000 ) ;
#67 = EDGE_CURVE ( 'NONE', #62, #232, #65, .T. ) ;
#68 = VERTEX_POINT ( 'NONE', #319 ) ;
#69 = CARTESIAN_POINT ( 'NONE',  ( -1.600000000000001199, 1.000000000000000000, 0.2399999999999999911 ) ) ;
#70 = DIRECTION ( 'NONE',  ( 0.0000000000000000000, 1.000000000000000000, 0.0000000000000000000 ) ) ;
#71 = LOCAL_TIME ( 8, 56, 4.000000000000000000, #324 ) ;
#72 = EDGE_LOOP ( 'NONE', ( #129, #42, #9, #44 ) ) ;
#73 = DATE_AND_TIME ( #253, #262 ) ;
#74 = VECTOR ( 'NONE', #231, 1000.000000000000000 ) ;
#75 = VERTEX_POINT ( 'NONE', #338 ) ;
#76 = FACE_OUTER_BOUND ( 'NONE', #72, .T. ) ;
#77 = VERTEX_POINT ( 'NONE', #24 ) ;
#78 = CARTESIAN_POINT ( 'NONE',  ( -1.600000000000001199, 0.0000000000000000000, -0.2399999999999999911 ) ) ;
#79 = ADVANCED_FACE ( 'NONE', ( #125 ), #278, .F. ) ;
#80 = CARTESIAN_POINT ( 'NONE',  ( 1.599999999999998979, 0.0000000000000000000, 0.2399999999999999911 ) ) ;
#81 = ORIENTED_EDGE ( 'NONE', *, *, #265, .F. ) ;
#82 = PRODUCT_DEFINITION_SHAPE ( 'NONE', 'NONE',  #103 ) ;
#83 = PERSON_AND_ORGANIZATION ( #327, #314 ) ;
#84 = APPROVAL_ROLE ( '' ) ;
#85 = CC_DESIGN_DATE_AND_TIME_ASSIGNMENT ( #192, #315, ( #103 ) ) ;
#86 = FACE_OUTER_BOUND ( 'NONE', #202, .T. ) ;
#87 = AXIS2_PLACEMENT_3D ( 'NONE', #37, #140, #6 ) ;
#88 = DIRECTION ( 'NONE',  ( -0.0000000000000000000, -1.000000000000000000, -0.0000000000000000000 ) ) ;
#89 = CYLINDRICAL_SURFACE ( 'NONE', #309, 1.000000000000000000 ) ;
#90 = CALENDAR_DATE ( 2025, 17, 6 ) ;
#91 = LOCAL_TIME ( 8, 56, 4.000000000000000000, #276 ) ;
#92 = ADVANCED_BREP_SHAPE_REPRESENTATION ( 'B3DQ3BRG', ( #180, #298 ), #178 ) ;
#93 = CARTESIAN_POINT ( 'NONE',  ( -1.600000000000001199, 1.000000000000000000, -0.2399999999999999911 ) ) ;
#94 = DIRECTION ( 'NONE',  ( 0.0000000000000000000, 0.0000000000000000000, -1.000000000000000000 ) ) ;
#95 = CARTESIAN_POINT ( 'NONE',  ( 0.9999999999999988898, 1.000000000000000000, -0.2399999999999999911 ) ) ;
#96 = EDGE_LOOP ( 'NONE', ( #57, #229, #131, #280 ) ) ;
#97 = CLOSED_SHELL ( 'NONE', ( #154, #79, #320, #47, #18, #133, #172, #299, #290 ) ) ;
#98 = APPROVAL_PERSON_ORGANIZATION ( #166, #275, #321 ) ;
#99 = CARTESIAN_POINT ( 'NONE',  ( -1.600000000000001199, 0.0000000000000000000, -0.2399999999999999911 ) ) ;
#100 = EDGE_CURVE ( 'NONE', #64, #306, #310, .T. ) ;
#101 = VECTOR ( 'NONE', #325, 1000.000000000000000 ) ;
#102 = DIRECTION ( 'NONE',  ( -0.0000000000000000000, -0.0000000000000000000, 1.000000000000000000 ) ) ;
#103 = PRODUCT_DEFINITION ( 'UNKNOWN', '', #35, #251 ) ;
#104 = CARTESIAN_POINT ( 'NONE',  ( 1.599999999999998979, 0.0000000000000000000, 0.2399999999999999911 ) ) ;
#105 = SECURITY_CLASSIFICATION_LEVEL ( 'unclassified' ) ;
#106 = ORIENTED_EDGE ( 'NONE', *, *, #271, .T. ) ;
#107 = FACE_OUTER_BOUND ( 'NONE', #255, .T. ) ;
#108 = ORIENTED_EDGE ( 'NONE', *, *, #304, .T. ) ;
#109 = APPLICATION_PROTOCOL_DEFINITION ( 'international standard', 'config_control_design', 1994, #218 ) ;
#110 = EDGE_CURVE ( 'NONE', #239, #75, #285, .T. ) ;
#111 = CALENDAR_DATE ( 2025, 17, 6 ) ;
#112 = AXIS2_PLACEMENT_3D ( 'NONE', #210, #1, #61 ) ;
#113 = PERSON_AND_ORGANIZATION ( #327, #314 ) ;
#114 = DIRECTION ( 'NONE',  ( -0.0000000000000000000, -0.0000000000000000000, 1.000000000000000000 ) ) ;
#115 = DIRECTION ( 'NONE',  ( 0.0000000000000000000, 0.0000000000000000000, 1.000000000000000000 ) ) ;
#116 = PLANE ( 'NONE',  #259 ) ;
#117 = DIRECTION ( 'NONE',  ( 0.0000000000000000000, -0.0000000000000000000, 1.000000000000000000 ) ) ;
#118 = EDGE_LOOP ( 'NONE', ( #244, #108, #336, #53, #188, #39, #142 ) ) ;
#119 = CARTESIAN_POINT ( 'NONE',  ( 0.9999999999999988898, 0.0000000000000000000, -0.2399999999999999911 ) ) ;
#120 = CARTESIAN_POINT ( 'NONE',  ( -1.600000000000001199, 1.000000000000000000, 0.2399999999999999911 ) ) ;
#121 = FACE_OUTER_BOUND ( 'NONE', #96, .T. ) ;
#122 = LINE ( 'NONE', #95, #101 ) ;
#123 = CC_DESIGN_APPROVAL ( #223, ( #35 ) ) ;
#124 = AXIS2_PLACEMENT_3D ( 'NONE', #181, #274, #247 ) ;
#125 = FACE_OUTER_BOUND ( 'NONE', #313, .T. ) ;
#126 = ORIENTED_EDGE ( 'NONE', *, *, #317, .F. ) ;
#127 = CARTESIAN_POINT ( 'NONE',  ( 1.599999999999998979, 1.000000000000000000, 0.2399999999999999911 ) ) ;
#128 = PERSON_AND_ORGANIZATION ( #327, #314 ) ;
#129 = ORIENTED_EDGE ( 'NONE', *, *, #194, .T. ) ;
#130 = CARTESIAN_POINT ( 'NONE',  ( 0.9999999999999988898, 1.000000000000000000, -0.2399999999999999911 ) ) ;
#131 = ORIENTED_EDGE ( 'NONE', *, *, #268, .F. ) ;
#132 = PERSON_AND_ORGANIZATION ( #327, #314 ) ;
#133 = ADVANCED_FACE ( 'NONE', ( #76 ), #55, .F. ) ;
#134 = APPLICATION_PROTOCOL_DEFINITION ( 'international standard', 'config_control_design', 1994, #185 ) ;
#135 = CARTESIAN_POINT ( 'NONE',  ( 1.599999999999998979, 1.000000000000000000, -0.2399999999999999911 ) ) ;
#136 = LOCAL_TIME ( 8, 56, 4.000000000000000000, #286 ) ;
#137 = DATE_AND_TIME ( #261, #230 ) ;
#138 = VERTEX_POINT ( 'NONE', #141 ) ;
#139 = AXIS2_PLACEMENT_3D ( 'NONE', #28, #226, #287 ) ;
#140 = DIRECTION ( 'NONE',  ( 0.0000000000000000000, 0.0000000000000000000, 1.000000000000000000 ) ) ;
#141 = CARTESIAN_POINT ( 'NONE',  ( -1.000000000000001110, 1.000000000000000000, -0.2400000000000001577 ) ) ;
#142 = ORIENTED_EDGE ( 'NONE', *, *, #110, .T. ) ;
#143 = DIRECTION ( 'NONE',  ( -0.0000000000000000000, -1.000000000000000000, -0.0000000000000000000 ) ) ;
#144 = EDGE_CURVE ( 'NONE', #232, #77, #2, .T. ) ;
#145 = CARTESIAN_POINT ( 'NONE',  ( -1.600000000000001199, 0.0000000000000000000, 0.2399999999999999911 ) ) ;
#146 = ORIENTED_EDGE ( 'NONE', *, *, #271, .F. ) ;
#147 = EDGE_CURVE ( 'NONE', #138, #175, #242, .T. ) ;
#148 = DIRECTION ( 'NONE',  ( 0.0000000000000000000, -0.0000000000000000000, 1.000000000000000000 ) ) ;
#149 = ORIENTED_EDGE ( 'NONE', *, *, #67, .F. ) ;
#150 = FACE_OUTER_BOUND ( 'NONE', #19, .T. ) ;
#151 = VECTOR ( 'NONE', #7, 1000.000000000000000 ) ;
#152 = AXIS2_PLACEMENT_3D ( 'NONE', #63, #243, #117 ) ;
#153 = VERTEX_POINT ( 'NONE', #292 ) ;
#154 = ADVANCED_FACE ( 'NONE', ( #86 ), #89, .T. ) ;
#155 = ORIENTED_EDGE ( 'NONE', *, *, #46, .F. ) ;
#156 = EDGE_CURVE ( 'NONE', #68, #306, #238, .T. ) ;
#157 = DATE_TIME_ROLE ( 'classification_date' ) ;
#158 = DIRECTION ( 'NONE',  ( 0.0000000000000000000, 0.0000000000000000000, 1.000000000000000000 ) ) ;
#159 = ORIENTED_EDGE ( 'NONE', *, *, #8, .T. ) ;
#160 = PERSON_AND_ORGANIZATION ( #327, #314 ) ;
#161 = ORIENTED_EDGE ( 'NONE', *, *, #194, .F. ) ;
#162 = APPROVAL_STATUS ( 'not_yet_approved' ) ;
#163 = MECHANICAL_CONTEXT ( 'NONE', #218, 'mechanical' ) ;
#164 = VECTOR ( 'NONE', #60, 1000.000000000000000 ) ;
#165 = LINE ( 'NONE', #235, #273 ) ;
#166 = PERSON_AND_ORGANIZATION ( #327, #314 ) ;
#167 = APPROVAL_DATE_TIME ( #137, #275 ) ;
#168 = DIRECTION ( 'NONE',  ( 0.0000000000000000000, 0.0000000000000000000, -1.000000000000000000 ) ) ;
#169 = AXIS2_PLACEMENT_3D ( 'NONE', #43, #220, #115 ) ;
#170 = AXIS2_PLACEMENT_3D ( 'NONE', #69, #171, #322 ) ;
#171 = DIRECTION ( 'NONE',  ( 1.000000000000000000, -0.0000000000000000000, 0.0000000000000000000 ) ) ;
#172 = ADVANCED_FACE ( 'NONE', ( #295 ), #116, .F. ) ;
#173 = CARTESIAN_POINT ( 'NONE',  ( -1.084202172485504434E-15, 1.000000000000000000, -1.239999999999999991 ) ) ;
#174 = LINE ( 'NONE', #272, #195 ) ;
#175 = VERTEX_POINT ( 'NONE', #5 ) ;
#176 = DIRECTION ( 'NONE',  ( 0.0000000000000000000, 1.000000000000000000, 0.0000000000000000000 ) ) ;
#177 = ORIENTED_EDGE ( 'NONE', *, *, #234, .F. ) ;
#178 =( GEOMETRIC_REPRESENTATION_CONTEXT ( 3 ) GLOBAL_UNCERTAINTY_ASSIGNED_CONTEXT ( ( #311 ) ) GLOBAL_UNIT_ASSIGNED_CONTEXT ( ( #34, #291, #208 ) ) REPRESENTATION_CONTEXT ( 'NONE', 'WORKASPACE' ) );
#179 = CC_DESIGN_PERSON_AND_ORGANIZATION_ASSIGNMENT ( #83, #211, ( #103 ) ) ;
#180 = MANIFOLD_SOLID_BREP ( 'Boss-Extrude1', #97 ) ;
#181 = CARTESIAN_POINT ( 'NONE',  ( -1.600000000000001199, 1.000000000000000000, -0.2399999999999999911 ) ) ;
#182 = EDGE_CURVE ( 'NONE', #225, #329, #191, .T. ) ;
#183 = PERSON_AND_ORGANIZATION_ROLE ( 'classification_officer' ) ;
#184 = APPROVAL_DATE_TIME ( #73, #223 ) ;
#185 = APPLICATION_CONTEXT ( 'configuration controlled 3d designs of mechanical parts and assemblies' ) ;
#186 = PRODUCT ( 'B3DQ3BRG', 'B3DQ3BRG', '', ( #163 ) ) ;
#187 = PERSON_AND_ORGANIZATION ( #327, #314 ) ;
#188 = ORIENTED_EDGE ( 'NONE', *, *, #268, .T. ) ;
#189 = CARTESIAN_POINT ( 'NONE',  ( -1.000000000000001110, 1.000000000000000000, -0.2400000000000001577 ) ) ;
#190 = DIRECTION ( 'NONE',  ( -0.0000000000000000000, -1.000000000000000000, -0.0000000000000000000 ) ) ;
#191 = LINE ( 'NONE', #297, #164 ) ;
#192 = DATE_AND_TIME ( #90, #71 ) ;
#193 = LINE ( 'NONE', #145, #258 ) ;
#194 = EDGE_CURVE ( 'NONE', #329, #227, #303, .T. ) ;
#195 = VECTOR ( 'NONE', #45, 1000.000000000000000 ) ;
#196 = CARTESIAN_POINT ( 'NONE',  ( -1.084202172485504434E-15, 1.000000000000000000, -0.2399999999999999911 ) ) ;
#197 = ORIENTED_EDGE ( 'NONE', *, *, #265, .T. ) ;
#198 = CC_DESIGN_APPROVAL ( #207, ( #332 ) ) ;
#199 = FACE_OUTER_BOUND ( 'NONE', #277, .T. ) ;
#200 = DIRECTION ( 'NONE',  ( -1.000000000000000000, -0.0000000000000000000, -0.0000000000000000000 ) ) ;
#201 = LINE ( 'NONE', #308, #33 ) ;
#202 = EDGE_LOOP ( 'NONE', ( #155, #283, #25, #248 ) ) ;
#203 = DIRECTION ( 'NONE',  ( 0.0000000000000000000, 0.0000000000000000000, 1.000000000000000000 ) ) ;
#204 = ORIENTED_EDGE ( 'NONE', *, *, #323, .F. ) ;
#205 = VECTOR ( 'NONE', #41, 1000.000000000000000 ) ;
#206 = ORIENTED_EDGE ( 'NONE', *, *, #14, .F. ) ;
#207 = APPROVAL ( #228, 'UNSPECIFIED' ) ;
#208 =( NAMED_UNIT ( * ) SI_UNIT ( $, .STERADIAN. ) SOLID_ANGLE_UNIT ( ) );
#209 = CIRCLE ( 'NONE', #112, 1.000000000000000000 ) ;
#210 = CARTESIAN_POINT ( 'NONE',  ( -1.084202172485504434E-15, 0.0000000000000000000, -0.2399999999999999911 ) ) ;
#211 = PERSON_AND_ORGANIZATION_ROLE ( 'creator' ) ;
#212 = LINE ( 'NONE', #241, #48 ) ;
#213 = CC_DESIGN_DATE_AND_TIME_ASSIGNMENT ( #282, #157, ( #332 ) ) ;
#214 = FACE_OUTER_BOUND ( 'NONE', #118, .T. ) ;
#215 = DIRECTION ( 'NONE',  ( -1.000000000000000000, -0.0000000000000000000, -0.0000000000000000000 ) ) ;
#216 = DIRECTION ( 'NONE',  ( -0.0000000000000000000, -1.000000000000000000, -0.0000000000000000000 ) ) ;
#217 = PLANE ( 'NONE',  #124 ) ;
#218 = APPLICATION_CONTEXT ( 'configuration controlled 3d designs of mechanical parts and assemblies' ) ;
#219 = APPROVAL_PERSON_ORGANIZATION ( #252, #207, #84 ) ;
#220 = DIRECTION ( 'NONE',  ( 0.0000000000000000000, 1.000000000000000000, 0.0000000000000000000 ) ) ;
#221 = EDGE_CURVE ( 'NONE', #225, #239, #212, .T. ) ;
#222 = VECTOR ( 'NONE', #224, 1000.000000000000000 ) ;
#223 = APPROVAL ( #162, 'UNSPECIFIED' ) ;
#224 = DIRECTION ( 'NONE',  ( 0.0000000000000000000, 0.0000000000000000000, -1.000000000000000000 ) ) ;
#225 = VERTEX_POINT ( 'NONE', #307 ) ;
#226 = DIRECTION ( 'NONE',  ( -0.0000000000000000000, -1.000000000000000000, -0.0000000000000000000 ) ) ;
#227 = VERTEX_POINT ( 'NONE', #328 ) ;
#228 = APPROVAL_STATUS ( 'not_yet_approved' ) ;
#229 = ORIENTED_EDGE ( 'NONE', *, *, #182, .F. ) ;
#230 = LOCAL_TIME ( 8, 56, 4.000000000000000000, #296 ) ;
#231 = DIRECTION ( 'NONE',  ( 1.000000000000000000, 0.0000000000000000000, 0.0000000000000000000 ) ) ;
#232 = VERTEX_POINT ( 'NONE', #173 ) ;
#233 = DIRECTION ( 'NONE',  ( 0.0000000000000000000, 0.0000000000000000000, 1.000000000000000000 ) ) ;
#234 = EDGE_CURVE ( 'NONE', #77, #175, #237, .T. ) ;
#235 = CARTESIAN_POINT ( 'NONE',  ( 1.599999999999998979, 1.000000000000000000, 0.2399999999999999911 ) ) ;
#236 = APPROVAL_PERSON_ORGANIZATION ( #160, #223, #27 ) ;
#237 = CIRCLE ( 'NONE', #169, 1.000000000000000000 ) ;
#238 = LINE ( 'NONE', #135, #30 ) ;
#239 = VERTEX_POINT ( 'NONE', #333 ) ;
#240 = CARTESIAN_POINT ( 'NONE',  ( -1.084202172485504434E-15, 1.000000000000000000, -0.2399999999999999911 ) ) ;
#241 = CARTESIAN_POINT ( 'NONE',  ( -1.600000000000001199, 1.000000000000000000, 0.2399999999999999911 ) ) ;
#242 = LINE ( 'NONE', #189, #151 ) ;
#243 = DIRECTION ( 'NONE',  ( 0.0000000000000000000, 1.000000000000000000, 0.0000000000000000000 ) ) ;
#244 = ORIENTED_EDGE ( 'NONE', *, *, #29, .T. ) ;
#245 = LINE ( 'NONE', #119, #293 ) ;
#246 = LINE ( 'NONE', #120, #288 ) ;
#247 = DIRECTION ( 'NONE',  ( 1.000000000000000000, 0.0000000000000000000, -0.0000000000000000000 ) ) ;
#248 = ORIENTED_EDGE ( 'NONE', *, *, #147, .F. ) ;
#249 = ORIENTED_EDGE ( 'NONE', *, *, #100, .F. ) ;
#250 = CARTESIAN_POINT ( 'NONE',  ( -1.084202172485504434E-15, 1.000000000000000000, -0.2399999999999999911 ) ) ;
#251 = DESIGN_CONTEXT ( 'detailed design', #185, 'design' ) ;
#252 = PERSON_AND_ORGANIZATION ( #327, #314 ) ;
#253 = CALENDAR_DATE ( 2025, 17, 6 ) ;
#254 = CYLINDRICAL_SURFACE ( 'NONE', #139, 1.000000000000000000 ) ;
#255 = EDGE_LOOP ( 'NONE', ( #31, #149, #197, #335 ) ) ;
#256 = CARTESIAN_POINT ( 'NONE',  ( -1.084202172485504434E-15, 1.000000000000000000, -0.2399999999999999911 ) ) ;
#257 = APPROVAL_DATE_TIME ( #260, #207 ) ;
#258 = VECTOR ( 'NONE', #330, 1000.000000000000000 ) ;
#259 = AXIS2_PLACEMENT_3D ( 'NONE', #263, #94, #59 ) ;
#260 = DATE_AND_TIME ( #111, #91 ) ;
#261 = CALENDAR_DATE ( 2025, 17, 6 ) ;
#262 = LOCAL_TIME ( 8, 56, 4.000000000000000000, #20 ) ;
#263 = CARTESIAN_POINT ( 'NONE',  ( -1.600000000000001199, 1.000000000000000000, 0.2399999999999999911 ) ) ;
#264 = CARTESIAN_POINT ( 'NONE',  ( -1.084202172485504434E-15, 1.000000000000000000, -1.239999999999999991 ) ) ;
#265 = EDGE_CURVE ( 'NONE', #62, #153, #122, .T. ) ;
#266 = LINE ( 'NONE', #93, #205 ) ;
#267 = EDGE_LOOP ( 'NONE', ( #106, #204, #22, #159 ) ) ;
#268 = EDGE_CURVE ( 'NONE', #138, #225, #266, .T. ) ;
#269 = CARTESIAN_POINT ( 'NONE',  ( 1.599999999999998979, 0.0000000000000000000, -0.2399999999999999911 ) ) ;
#270 = ORIENTED_EDGE ( 'NONE', *, *, #100, .T. ) ;
#271 = EDGE_CURVE ( 'NONE', #227, #64, #193, .T. ) ;
#272 = CARTESIAN_POINT ( 'NONE',  ( 0.9999999999999988898, 1.000000000000000000, -0.2399999999999999911 ) ) ;
#273 = VECTOR ( 'NONE', #88, 1000.000000000000000 ) ;
#274 = DIRECTION ( 'NONE',  ( 0.0000000000000000000, 0.0000000000000000000, 1.000000000000000000 ) ) ;
#275 = APPROVAL ( #294, 'UNSPECIFIED' ) ;
#276 = COORDINATED_UNIVERSAL_TIME_OFFSET ( 8, 0, .BEHIND. ) ;
#277 = EDGE_LOOP ( 'NONE', ( #249, #146, #161, #206, #177, #305, #126 ) ) ;
#278 = PLANE ( 'NONE',  #50 ) ;
#279 = VECTOR ( 'NONE', #200, 1000.000000000000000 ) ;
#280 = ORIENTED_EDGE ( 'NONE', *, *, #147, .T. ) ;
#281 = CC_DESIGN_SECURITY_CLASSIFICATION ( #332, ( #35 ) ) ;
#282 = DATE_AND_TIME ( #54, #136 ) ;
#283 = ORIENTED_EDGE ( 'NONE', *, *, #144, .T. ) ;
#284 = PERSON_AND_ORGANIZATION_ROLE ( 'creator' ) ;
#285 = LINE ( 'NONE', #52, #74 ) ;
#286 = COORDINATED_UNIVERSAL_TIME_OFFSET ( 8, 0, .BEHIND. ) ;
#287 = DIRECTION ( 'NONE',  ( 0.0000000000000000000, 0.0000000000000000000, -1.000000000000000000 ) ) ;
#288 = VECTOR ( 'NONE', #216, 1000.000000000000000 ) ;
#289 = ORIENTED_EDGE ( 'NONE', *, *, #156, .T. ) ;
#290 = ADVANCED_FACE ( 'NONE', ( #199 ), #302, .F. ) ;
#291 =( NAMED_UNIT ( * ) PLANE_ANGLE_UNIT ( ) SI_UNIT ( $, .RADIAN. ) );
#292 = CARTESIAN_POINT ( 'NONE',  ( 0.9999999999999988898, 0.0000000000000000000, -0.2399999999999999911 ) ) ;
#293 = VECTOR ( 'NONE', #215, 1000.000000000000000 ) ;
#294 = APPROVAL_STATUS ( 'not_yet_approved' ) ;
#295 = FACE_OUTER_BOUND ( 'NONE', #267, .T. ) ;
#296 = COORDINATED_UNIVERSAL_TIME_OFFSET ( 8, 0, .BEHIND. ) ;
#297 = CARTESIAN_POINT ( 'NONE',  ( -1.600000000000001199, 1.000000000000000000, -0.2399999999999999911 ) ) ;
#298 = AXIS2_PLACEMENT_3D ( 'NONE', #58, #56, #4 ) ;
#299 = ADVANCED_FACE ( 'NONE', ( #214 ), #10, .T. ) ;
#300 = CIRCLE ( 'NONE', #301, 1.000000000000000000 ) ;
#301 = AXIS2_PLACEMENT_3D ( 'NONE', #256, #70, #203 ) ;
#302 = PLANE ( 'NONE',  #152 ) ;
#303 = LINE ( 'NONE', #38, #66 ) ;
#304 = EDGE_CURVE ( 'NONE', #68, #62, #174, .T. ) ;
#305 = ORIENTED_EDGE ( 'NONE', *, *, #334, .F. ) ;
#306 = VERTEX_POINT ( 'NONE', #269 ) ;
#307 = CARTESIAN_POINT ( 'NONE',  ( -1.600000000000001199, 1.000000000000000000, -0.2399999999999999911 ) ) ;
#308 = CARTESIAN_POINT ( 'NONE',  ( 1.599999999999998979, 1.000000000000000000, 0.2399999999999999911 ) ) ;
#309 = AXIS2_PLACEMENT_3D ( 'NONE', #240, #326, #168 ) ;
#310 = LINE ( 'NONE', #104, #222 ) ;
#311 = UNCERTAINTY_MEASURE_WITH_UNIT (LENGTH_MEASURE( 1.000000000000000082E-05 ), #34, 'distance_accuracy_value', 'NONE');
#312 = PRODUCT_RELATED_PRODUCT_CATEGORY ( 'detail', '', ( #186 ) ) ;
#313 = EDGE_LOOP ( 'NONE', ( #270, #17, #339, #51 ) ) ;
#314 = ORGANIZATION ( 'UNSPECIFIED', 'UNSPECIFIED', '' ) ;
#315 = DATE_TIME_ROLE ( 'creation_date' ) ;
#316 = DIRECTION ( 'NONE',  ( 0.0000000000000000000, 1.000000000000000000, 0.0000000000000000000 ) ) ;
#317 = EDGE_CURVE ( 'NONE', #306, #153, #245, .T. ) ;
#318 = AXIS2_PLACEMENT_3D ( 'NONE', #250, #316, #233 ) ;
#319 = CARTESIAN_POINT ( 'NONE',  ( 1.599999999999998979, 1.000000000000000000, -0.2399999999999999911 ) ) ;
#320 = ADVANCED_FACE ( 'NONE', ( #150 ), #11, .F. ) ;
#321 = APPROVAL_ROLE ( '' ) ;
#322 = DIRECTION ( 'NONE',  ( 0.0000000000000000000, 0.0000000000000000000, -1.000000000000000000 ) ) ;
#323 = EDGE_CURVE ( 'NONE', #75, #64, #165, .T. ) ;
#324 = COORDINATED_UNIVERSAL_TIME_OFFSET ( 8, 0, .BEHIND. ) ;
#325 = DIRECTION ( 'NONE',  ( -0.0000000000000000000, -1.000000000000000000, -0.0000000000000000000 ) ) ;
#326 = DIRECTION ( 'NONE',  ( -0.0000000000000000000, -1.000000000000000000, -0.0000000000000000000 ) ) ;
#327 = PERSON ( 'UNSPECIFIED', 'UNSPECIFIED', 'UNSPECIFIED', ('UNSPECIFIED'), ('UNSPECIFIED'), ('UNSPECIFIED') ) ;
#328 = CARTESIAN_POINT ( 'NONE',  ( -1.600000000000001199, 0.0000000000000000000, 0.2399999999999999911 ) ) ;
#329 = VERTEX_POINT ( 'NONE', #78 ) ;
#330 = DIRECTION ( 'NONE',  ( 1.000000000000000000, 0.0000000000000000000, 0.0000000000000000000 ) ) ;
#331 = LINE ( 'NONE', #99, #279 ) ;
#332 = SECURITY_CLASSIFICATION ( '', '', #105 ) ;
#333 = CARTESIAN_POINT ( 'NONE',  ( -1.600000000000001199, 1.000000000000000000, 0.2399999999999999911 ) ) ;
#334 = EDGE_CURVE ( 'NONE', #153, #77, #209, .T. ) ;
#335 = ORIENTED_EDGE ( 'NONE', *, *, #334, .T. ) ;
#336 = ORIENTED_EDGE ( 'NONE', *, *, #67, .T. ) ;
#337 = CC_DESIGN_PERSON_AND_ORGANIZATION_ASSIGNMENT ( #187, #183, ( #332 ) ) ;
#338 = CARTESIAN_POINT ( 'NONE',  ( 1.599999999999998979, 1.000000000000000000, 0.2399999999999999911 ) ) ;
#339 = ORIENTED_EDGE ( 'NONE', *, *, #29, .F. ) ;
#340 = ORIENTED_EDGE ( 'NONE', *, *, #304, .F. ) ;
ENDSEC;
END-ISO-10303-21;
